<svg version="1.1" id="Layer_1" xmlns="http://www.w3.org/2000/svg" xmlns:xlink="http://www.w3.org/1999/xlink" 
     width="100%" height="100%" viewBox="0 0 1024 672" enable-background="new 0 0 1024 672" xml:space="preserve">

  <path fill="#000000" d="M324.014099,455.184113 
	C296.067963,466.590424 268.433136,467.255280 241.393784,454.153870 
	C208.895706,438.407501 190.396683,411.813965 187.915222,376.060974 
	C185.101685,335.523621 201.780334,303.999664 237.437759,283.346619 
	C244.694214,279.143616 252.694168,276.768921 260.757111,274.656586 
	C261.992950,274.332794 263.315918,273.719299 265.333191,275.271790 
	C263.347473,283.173645 261.309662,291.465179 259.149475,299.724640 
	C258.719055,301.370453 256.926788,301.599945 255.578079,302.175964 
	C226.678101,314.519836 209.417969,342.061401 211.402069,373.314575 
	C212.535370,391.166229 219.833206,406.348969 232.658356,418.845428 
	C233.254166,419.425995 233.868500,419.995239 234.527405,420.500336 
	C234.907959,420.792053 235.395203,420.944550 235.852203,421.168457 
	C237.870743,420.508606 237.840942,418.581146 238.292908,417.102203 
	C251.957352,372.389221 265.556915,327.656403 279.229797,282.946014 
	C280.348083,279.289215 280.123322,276.628723 276.978912,273.703583 
	C268.593475,265.902924 264.489746,249.763550 268.255005,241.009537 
	C277.905182,243.873596 285.060577,249.987030 290.838776,258.010590 
	C291.848267,259.412323 292.331482,261.788483 294.630676,261.469421 
	C297.054199,261.133057 298.139984,259.021271 298.758270,256.902710 
	C301.159943,248.673157 302.533813,240.411789 300.158966,231.849487 
	C298.722656,226.671127 299.326447,226.130707 304.746155,226.032700 
	C308.074310,225.972504 311.366516,226.242538 314.397064,227.144684 
	C315.390076,228.152908 315.272003,229.194870 314.920044,230.111771 
	C311.106171,240.046356 312.980011,250.077942 314.100037,260.160797 
	C314.473114,263.519196 316.035522,265.392731 318.788055,266.524719 
	C324.805267,268.999298 328.281006,273.585663 330.211456,279.592468 
	C331.143127,282.491516 332.644989,284.996979 334.988556,287.057953 
	C342.742584,293.877045 350.393982,300.812744 358.129120,307.653503 
	C362.207520,311.260376 364.689606,321.457886 362.598450,326.461853 
	C360.784668,330.801971 348.949005,333.551331 345.093231,329.731293 
	C338.202759,322.904724 329.893127,321.961182 321.102325,322.299164 
	C315.128357,322.528839 309.744446,320.159698 304.016357,318.846985 
	C301.104309,323.435333 302.079987,328.506226 301.624664,333.122314 
	C299.796814,351.652954 298.685242,370.253235 297.194214,388.818512 
	C296.036224,403.236359 294.802948,417.649719 293.412079,432.046600 
	C292.796600,438.417389 293.325409,439.042236 299.609009,437.759827 
	C312.969482,435.033142 324.468994,428.489502 335.328125,420.569244 
	C337.119171,419.262909 337.877319,417.686249 337.866638,415.492920 
	C337.823639,406.662933 337.780914,397.830933 337.932892,389.003021 
	C337.991577,385.593445 336.795807,384.137329 333.285065,384.324524 
	C327.134491,384.652466 320.970612,384.725464 314.813232,384.932556 
	C311.295380,385.050842 309.513977,383.994720 310.321320,379.924622 
	C311.321564,374.882111 311.903900,369.746155 312.443542,364.627014 
	C312.740662,361.808350 314.014923,360.346680 316.825195,360.329132 
	C330.815277,360.241669 344.805450,360.160706 358.795715,360.115387 
	C362.001343,360.104980 362.436523,362.253540 362.425476,364.867035 
	C362.379059,375.863129 362.351501,386.859985 362.430664,397.855743 
	C362.490601,406.181580 362.573303,414.512787 362.940338,422.828613 
	C363.126190,427.039551 361.626434,430.073792 358.591644,432.887115 
	C348.460724,442.278595 337.015259,449.569366 324.014099,455.184113 z"/>

  <path fill="#000000" d="M593.877197,409.971832 
	C580.856873,410.079315 581.998108,408.294769 581.944153,421.445862 
	C581.941406,422.111572 581.947571,422.777252 581.945618,423.442963 
	C581.924561,430.535522 577.945679,433.198059 571.007446,430.866821 
	C569.247070,430.275330 568.748596,429.091217 568.749756,427.461945 
	C568.764771,405.993561 568.777588,384.525177 568.805176,363.056793 
	C568.807617,361.142517 569.639587,359.743805 571.722229,359.783539 
	C583.675171,360.011505 595.700928,358.456604 607.567810,360.518250 
	C617.340576,362.216095 623.970825,368.177155 625.803406,377.989105 
	C627.727478,388.290527 626.348938,398.175079 616.851379,404.711365 
	C613.064941,407.317200 613.106018,409.183594 615.693359,412.574219 
	C619.800964,417.957092 623.404541,423.724548 627.239685,429.356323 
	C620.537170,433.049957 614.344543,431.597656 610.844849,425.843567 
	C608.856628,422.574646 606.545044,419.458405 604.936768,416.013092 
	C602.748840,411.326141 599.561218,409.042084 593.877197,409.971832 z 
M583.281616,371.685852 
	C582.979431,372.070190 582.454834,372.429443 582.408203,372.842590 
	C581.568970,380.281616 582.084167,387.740784 582.201111,395.190979 
	C582.239807,397.654572 584.231201,397.953278 586.151611,397.939270 
	C591.459595,397.900574 596.789490,398.081207 602.069458,397.659180 
	C609.644775,397.053711 614.541199,391.727142 614.554443,384.688721 
	C614.569275,376.774994 609.852722,371.765472 601.515503,371.372498 
	C595.724915,371.099579 589.909424,371.353394 583.281616,371.685852 z"/>

  <path fill="#000000" d="M428.691528,415.379578 
	C437.330444,421.219635 446.157349,421.245789 455.193268,417.654572 
	C459.854034,415.802185 460.455170,413.346527 459.084290,406.364441 
	C458.268585,402.209747 455.200806,403.627747 452.798950,403.392914 
	C451.148651,403.231537 449.469513,403.380280 447.803558,403.361023 
	C441.971039,403.293579 441.234955,402.374695 441.646484,396.589600 
	C441.819885,394.152191 442.736084,392.839294 445.233002,392.841309 
	C452.396851,392.847046 459.560730,392.877960 466.724518,392.862274 
	C469.209961,392.856842 470.350037,393.985352 470.335754,396.502594 
	C470.292267,404.166504 470.315552,411.830933 470.335815,419.495056 
	C470.340057,421.094513 469.880371,422.395081 468.520996,423.370758 
	C445.197876,440.110016 415.299042,431.269379 406.925140,405.855347 
	C400.164612,385.337677 414.120758,363.714325 435.606384,359.657898 
	C446.937439,357.518585 457.074005,360.127197 466.677765,365.787689 
	C468.858795,367.073212 472.239410,368.137482 469.472717,372.148895 
	C465.241119,378.284241 465.001617,378.541931 460.472046,375.750885 
	C453.590942,371.510712 446.273956,369.279572 438.149963,371.203094 
	C427.783417,373.657562 420.922638,379.876312 418.892487,390.469482 
	C416.970306,400.499481 420.335541,408.816925 428.691528,415.379578 z"/>

  <path fill="#000000" d="M808.261414,359.835907 
	C810.796875,361.809814 811.113770,364.617432 812.192505,367.008301 
	C821.021973,386.577301 829.771118,406.182526 838.550232,425.774231 
	C839.152222,427.117554 839.863037,428.426056 839.718445,429.902069 
	C831.122253,433.231445 827.168579,431.746735 823.898254,424.119843 
	C820.060120,415.168732 820.060120,415.172668 810.330933,415.196075 
	C803.336121,415.212921 796.331970,415.435455 789.350220,415.138489 
	C785.682434,414.982483 783.762146,416.473511 782.638977,419.655426 
	C782.196289,420.909424 781.673889,422.135468 781.180237,423.371216 
	C777.803345,431.824951 775.522888,432.869141 765.913635,430.325714 
	C764.977783,428.159912 766.484375,426.512970 767.254272,424.767090 
	C775.313354,406.492249 783.253357,388.161896 791.577820,370.008087 
	C797.227356,357.687622 793.791321,359.712799 808.261414,359.835907 z 
M795.891907,403.659760 
	C801.911377,403.659760 807.930847,403.659760 814.998779,403.659760 
	C810.381104,393.542877 807.519531,384.302856 802.082458,374.990112 
	C797.527832,384.841980 793.574463,393.630524 790.637512,402.672211 
	C792.346619,403.911377 793.719849,403.546509 795.891907,403.659760 z"/>

  <path fill="#000000" d="M707.264038,427.825134 
	C707.360535,428.812592 707.595581,429.748840 707.271851,430.021484 
	C703.829407,432.920227 694.310425,431.161865 693.286682,426.961121 
	C690.735352,416.491577 684.267273,413.674530 674.279053,415.039398 
	C668.554565,415.821655 662.636719,415.333527 656.812256,415.178772 
	C653.880615,415.100891 652.079712,416.026794 651.275879,418.943878 
	C650.837646,420.534210 650.042358,422.030121 649.367676,423.550690 
	C645.705017,431.805176 643.481567,432.785583 634.318054,430.120514 
	C633.421265,427.478088 635.119263,425.313904 636.055664,423.163208 
	C644.693176,403.326080 653.596008,383.603699 662.127563,363.721741 
	C664.107300,359.108246 667.577515,359.854584 671.164551,359.594238 
	C674.899780,359.323120 677.282837,360.321289 678.927063,364.078278 
	C688.199280,385.265717 697.712280,406.347809 707.264038,427.825134 z 
M682.007019,402.447113 
	C679.185669,393.139465 674.551392,384.675476 670.036621,375.955078 
	C665.656372,384.970490 661.452576,393.667999 658.330994,403.606903 
	C666.796448,403.369720 674.225830,404.427399 682.007019,402.447113 z"/>

  <path fill="#000000" d="M727.037781,359.648010 
	C738.514526,359.656799 749.504517,359.886078 760.478943,359.571899 
	C765.525146,359.427460 766.154297,361.898743 766.255066,365.971466 
	C766.359375,370.190552 764.653870,371.461792 760.630432,371.355225 
	C752.148804,371.130646 743.655090,371.382904 735.171265,371.204559 
	C731.546265,371.128387 730.255432,372.377075 730.189392,376.096375 
	C729.925537,390.960510 729.814941,390.951813 744.717224,390.875885 
	C749.210388,390.852966 753.708008,391.002899 758.195862,390.848999 
	C763.051453,390.682465 762.208557,394.067169 762.351074,396.990692 
	C762.503967,400.129089 762.243896,402.523346 758.001526,402.387085 
	C750.686584,402.152161 743.347229,402.562500 736.040710,402.219391 
	C731.344482,401.998840 729.934021,403.735291 730.179321,408.247589 
	C730.504028,414.220703 730.102295,420.229950 730.290466,426.214935 
	C730.453674,431.407349 726.995667,431.021729 723.581604,431.097412 
	C720.039307,431.175934 716.873779,431.248322 716.893127,426.184357 
	C716.971924,405.548889 716.928955,384.912537 716.815247,364.277161 
	C716.796143,360.814240 718.159363,359.395020 721.553589,359.640259 
	C723.208801,359.759827 724.880432,359.651550 727.037781,359.648010 z"/>

  <path fill="#000000" d="M500.532013,419.408997 
	C506.323486,417.798492 508.722656,414.049591 508.715057,408.583496 
	C508.700043,397.767792 508.508972,386.949432 508.704315,376.137787 
	C508.778229,372.047241 507.178711,371.012787 503.397064,371.215546 
	C498.253876,371.491333 493.079651,371.136810 487.927399,371.309998 
	C483.173859,371.469818 483.694885,368.256439 483.637787,365.244812 
	C483.581085,362.254639 483.514771,359.580566 487.856476,359.653900 
	C497.504608,359.816895 507.157928,359.745911 516.808228,359.661591 
	C519.867615,359.634857 521.380920,360.646698 521.361450,363.967957 
	C521.268860,379.775055 521.502686,395.586121 521.237183,411.389343 
	C521.077148,420.916962 515.138000,428.362854 506.697662,430.747192 
	C497.028320,433.478729 485.018097,429.986481 479.971893,422.800293 
	C476.670288,418.098511 481.424744,415.343567 482.800812,410.973206 
	C488.575226,414.576080 493.198395,419.666901 500.532013,419.408997 z"/>

  <path fill="#000000" d="M495.996338,324.395142 
	C499.750397,317.381531 503.471954,310.688171 506.779388,303.796112 
	C508.382538,300.455444 510.789520,299.763824 514.036804,299.924316 
	C516.543945,300.048187 517.510803,301.149170 517.491882,303.681488 
	C517.403625,315.487640 517.411987,327.294861 517.455750,339.101440 
	C517.464783,341.543671 517.188965,343.320221 514.048340,343.307983 
	C511.014099,343.296173 509.883240,341.945648 509.904755,339.063934 
	C509.959320,331.749420 509.922882,324.434235 509.922882,316.045471 
	C505.919373,320.711395 504.382294,325.553162 502.073792,329.942200 
	C501.144409,331.709167 500.177307,333.458588 499.316101,335.258453 
	C498.421814,337.127472 497.472809,338.827332 495.027740,338.830688 
	C492.646667,338.833954 491.519531,337.297821 490.581055,335.419006 
	C487.559021,329.368988 484.505066,323.334900 481.463440,317.294678 
	C481.046387,317.367065 480.629364,317.439453 480.212311,317.511841 
	C480.212311,324.565918 480.203400,331.619995 480.217041,338.674042 
	C480.222046,341.268646 479.715454,343.317291 476.427612,343.253967 
	C474.067017,343.208527 472.619354,342.455902 472.624054,339.817261 
	C472.645538,327.830750 472.630066,315.844116 472.612732,303.857544 
	C472.609772,301.803986 473.173553,300.212891 475.535858,300.004608 
	C478.630157,299.731812 481.460663,299.794800 483.103455,303.265961 
	C486.020721,309.430084 489.114532,315.513580 492.273499,321.558136 
	C492.989838,322.928772 493.112152,325.360321 495.996338,324.395142 z"/>

  <path fill="#000000" d="M537.945801,386.000000 
	C537.934631,378.676453 538.139526,371.843689 537.845764,365.032410 
	C537.621826,359.839752 540.564026,359.524597 544.485046,359.628174 
	C548.145691,359.724823 551.396362,359.348877 551.341431,364.813477 
	C551.138916,384.949402 551.120056,405.090057 551.346008,425.225433 
	C551.406250,430.593018 548.589783,431.022491 544.453064,431.162781 
	C540.201355,431.307037 537.897217,430.276031 537.955933,425.443146 
	C538.113403,412.464050 537.970825,399.481293 537.945801,386.000000 z"/>

  <path fill="#000000" d="M553.825562,335.684937 
	C557.268799,335.470123 560.199646,334.577820 560.360291,331.101837 
	C560.521240,327.618439 557.387085,326.543365 554.649841,325.767853 
	C551.125793,324.769501 547.554260,323.988068 544.305298,322.189178 
	C540.171997,319.900726 537.735718,316.533722 537.908325,311.721619 
	C538.079529,306.948395 540.579285,303.506653 544.890503,301.603943 
	C552.312134,298.328613 559.546753,299.637512 566.568787,303.001465 
	C569.456787,304.384979 568.186035,306.487183 567.337280,308.518036 
	C566.443787,310.656006 565.121399,311.215576 563.019531,310.124268 
	C560.035156,308.574768 556.860840,307.526062 553.481934,307.440704 
	C550.890686,307.375214 548.262817,307.826843 547.499023,310.814087 
	C546.686279,313.992767 549.034912,315.270447 551.476868,316.209503 
	C554.115967,317.224457 556.809631,318.096405 559.466187,319.067169 
	C567.095642,321.855164 569.921692,325.628113 569.292969,332.143524 
	C568.752869,337.741028 563.736816,342.225586 556.770813,343.175201 
	C550.230225,344.066803 544.254700,342.448883 538.656555,339.008789 
	C535.594971,337.127411 535.884460,334.965118 537.385193,332.262756 
	C539.135437,329.111084 540.939087,330.961884 542.710571,332.045563 
	C546.018494,334.069092 549.424988,335.739288 553.825562,335.684937 z"/>

  <path fill="#000000" d="M427.284851,305.356079 
	C428.498779,301.971039 430.025085,299.812225 433.823303,299.887115 
	C437.574707,299.961060 438.331329,302.560455 439.478119,305.191010 
	C443.999268,315.561584 448.647919,325.876648 453.153320,336.253906 
	C453.992065,338.185730 455.296631,340.034149 455.111450,342.304626 
	C449.135834,344.343628 447.619507,343.873657 445.661499,338.465179 
	C444.249084,334.563843 441.936493,332.856567 437.795135,333.365295 
	C435.827454,333.607025 433.776947,333.614899 431.812347,333.358154 
	C426.052582,332.605377 421.947876,333.923248 420.199371,340.294922 
	C419.049072,344.486725 415.479462,343.441071 411.644440,342.449615 
	C415.826782,329.609985 422.020416,317.875061 427.284851,305.356079 z 
M436.711884,317.746460 
	C435.639954,315.462006 435.154144,312.811615 432.706573,311.015228 
	C430.607422,316.112091 427.965424,320.654541 426.750214,326.193726 
	C431.251892,326.761414 435.336792,327.044342 439.440979,325.986603 
	C439.260956,322.847748 437.819153,320.748596 436.711884,317.746460 z"/>

</svg>
