<?xml version="1.0" encoding="utf-8"?>
<svg version="1.1" id="Layer_1" xmlns="http://www.w3.org/2000/svg" xmlns:xlink="http://www.w3.org/1999/xlink" x="0px" y="0px" viewBox="220 0 470 204.2" style="enable-background:new 220 0 470 204.2;" xml:space="preserve">
<style type="text/css">
	.st0{fill:#000000;}
	.st1{fill:#000000;}
	.st2{fill:#000000;}
	.st3{fill:#000000;}
</style>
<g>
	<g>
		<path class="st0" d="M301.4,192c4-4.9,6-11.8,6-20.7V51.1h-13.3l-0.7,10.2l-0.7-1c-4.7-7.4-13.2-11.1-25.2-11.1c-12,0-21.7,3.4-29,10.2c-7.2,6.8-10.9,16.5-10.9,28.8v31.8c0,12.9,3.5,22.9,10.3,29.6c6.9,6.7,16.5,10.1,28.6,10.1c12.1,0,20.6-4,25.4-12l0.8-1.3v23.5c0,11-4.8,17.9-14.4,20.8L282,202C291,200.2,297.5,196.8,301.4,192z M285.8,138.6c-4.7,5-11,7.5-18.8,7.5s-13.9-2.2-18.2-6.6c-4.3-4.4-6.5-10.8-6.5-19V89.4c0-8.8,2.4-15.4,7.1-19.8c4.7-4.4,10.7-6.6,18-6.6c7.2,0,13.4,2.1,18.2,6.2c4.8,4.1,7.3,10.2,7.3,18.1v29.9C292.8,126.4,290.5,133.7,285.8,138.6z"/>
		<path class="st0" d="M371.6,6.5c-2.2,0-4.2,0.9-5.9,2.5c-1.7,1.7-2.5,3.6-2.5,5.8c0,2.2,0.9,4.1,2.5,5.8c1.7,1.7,3.7,2.5,5.9,2.5c2.2,0,4.2-0.8,5.8-2.4c1.6-1.6,2.4-3.6,2.4-5.9c0-2.3-0.8-4.3-2.4-5.9C375.8,7.4,373.8,6.5,371.6,6.5z"/>
		<rect x="364" y="51.1" class="st0" width="14.6" height="106.1"/>
		<path class="st0" d="M420.8,66.9c4.2-2.8,9.1-4.2,14.5-4.2c5.2,0,6.6,0.1,11.3,1.6l3.6-13.7c-5.1-1-6.6-1-10.6-1l-1,0c-9.7,0-17.8,2.3-24.1,7l-0.6,0.5v-5.9h-14.1v106.1h14.6V78.5C414.3,73.7,416.5,69.8,420.8,66.9z"/>
		<path class="st0" d="M591.5,51.1h-22.6V40.5c0-8.2,1.8-13.8,5.5-16.6c3.6-2.8,7.8-4.2,12.4-4.2c1.4,0,3,0.1,4.7,0.4l-0.1-12.9c-0.6-0.2-1-0.3-1.4-0.4c-1.2-0.4-1.7-0.5-3.5-0.5c-6.3,0-12.7,1.7-19,5.1c-3.9,1.9-7.1,5.5-9.6,10.6c-2.5,5.1-3.8,11.4-3.8,18.7v116.8h14.8V64.9h22.6L591.5,51.1z"/>
		<path class="st0" d="M336,6.5c-2.3,0-4.3,0.8-6,2.4c-1.7,1.6-2.5,3.6-2.5,5.9c0,2.3,0.8,4.3,2.5,5.9c1.7,1.6,3.7,2.4,5.9,2.4c2.2,0,4.2-0.8,5.8-2.4c1.6-1.6,2.4-3.6,2.4-5.9c0-2.3-0.8-4.3-2.3-5.9C340.3,7.4,338.3,6.5,336,6.5z"/>
		<path class="st0" d="M342.9,51.1h-14.6v117.2c0,7.3-1.8,13-5.4,16.9c-1.5,1.5-3.3,2.7-5.5,3.8c-1.9,1-3.5,1.5-4.8,1.6l2.8,11.2c7.5-0.1,14-2.8,19.1-8.1c5.2-5.4,8-12.1,8.3-20.1L342.9,51.1z"/>
		<g>
			<path class="st0" d="M455.6,101.8c-1.8,3.3-3,7-3.5,10.8c-0.2,1.5-0.3,2.8-0.3,4.1c-0.2,4.2,0.1,9,0.9,15c0.2,1.7,0.6,3.5,1.1,5.5c3.4,9.4,11.2,16.9,20.7,20c3.2,1,6.6,1.5,9.9,1.5l49.3,0l0.5,0l0-0.5c0.1-2.1,0-4.3,0-6.4v0c0-1.1,0-2.1,0-3.1l0-5.6c-0.1-19.7-0.2-38.3-0.3-58l0-1.1c-0.3-1.6-0.5-4-0.4-5.5l0-0.1c-1.8-10.4-6.5-17.3-15.2-22.2c-1.2-0.7-2.4-1.3-3.5-1.8c-1.2-0.5-2.5-1-3.7-1.3c-1.4-0.4-2.7-0.7-4-1c-1.5-0.3-2.9-0.5-4.1-0.7c-1.4-0.2-2.8-0.3-4.1-0.4c-1.5-0.1-2.9-0.2-4.1-0.2c-5.4-0.3-11.2-0.2-16.9-0.1l-7.5,0.1v14.5h26.9c16.8,1.9,21.5,4.6,22.3,19.7l0.1,0.9l-2-0.2c-3.2-0.2-6.9-0.5-10.5-0.7c-3.2-0.2-6.2-0.2-9-0.2c-0.6,0-1.3,0-1.9,0c-3.8,0-7.5,0.2-10.9,0.6c-3.6,0.4-7,1-10,1.7c-5.5,1.6-9.1,3.3-12.2,5.8C460.6,95.1,458.4,97.7,455.6,101.8z M465.9,118.5c0-0.8,0-1.6,0.1-2.3c0.1-0.7,0.2-1.5,0.3-2.3c0.7-3.3,2.1-6.2,4.3-8.7c2.1-2.4,5-4.3,8.5-5.8c2.8-1.1,6-2,9.6-2.6c3.5-0.6,7.4-0.8,11.7-0.8c2.9,0,5.9,0.2,8.9,0.4c3.8,0.3,6.9,0.8,8.9,1.2l0.9,0.2c0.2,0,0.4,0.1,0.6,0.1l0.3,0.1v50l-18.6,0c-1.2,0-2.5,0-3.7,0l-0.5,0c-4.8-0.1-9.3-0.2-13.6-1.2c-5.1-1.2-9-3.5-12.3-7.3c-0.9-1-1.7-2.1-2.4-3.2c-0.7-1.1-1.2-2.3-1.7-3.6c-0.4-1.2-0.8-2.5-1-3.8c-0.2-1.3-0.3-2.6-0.4-4l0-3.2L465.9,118.5z"/>
			<polygon class="st0" points="534.7,151.9 534.7,151.9 534.7,151.9"/>
		</g>
		<path class="st0" d="M602.5,101.8c-1.8,3.3-3,7-3.5,10.8c-0.2,1.5-0.3,2.8-0.3,4.1c-0.2,4.3,0.1,9,0.9,15c0.2,1.7,0.6,3.5,1.1,5.5c3.4,9.4,11.2,16.9,20.7,20c3.2,1,6.6,1.5,9.9,1.5l49.3,0l0.5,0l0-0.5c0.1-2.1,0-4.3,0-6.4v0c0-1.1,0-2.1,0-3.1l0-6c-0.1-19.6-0.2-38-0.3-57.6l0-1.1c-0.3-1.6-0.5-4-0.4-5.5l0-0.1c-1.8-10.4-6.5-17.3-15.2-22.2c-1.2-0.7-2.4-1.3-3.5-1.8c-1.2-0.5-2.5-1-3.7-1.3c-1.4-0.4-2.7-0.7-4-1c-1.5-0.3-2.9-0.5-4.1-0.7c-1.4-0.2-2.8-0.3-4.1-0.4c-1.5-0.1-2.9-0.2-4.1-0.2c-5.4-0.3-11.2-0.2-16.9-0.1l-7.5,0.1v14.5H644c16.8,1.9,21.5,4.6,22.3,19.7l0.1,0.9l-2-0.2c-3.2-0.2-6.9-0.5-10.5-0.7c-3.2-0.2-6.2-0.2-9-0.2c-0.6,0-1.3,0-1.9,0c-3.8,0-7.5,0.2-10.9,0.6c-3.6,0.4-7,1-10,1.7c-5.5,1.6-9.1,3.3-12.2,5.8C607.5,95.1,605.3,97.7,602.5,101.8z M612.8,118.5c0-0.8,0-1.6,0.1-2.3c0.1-0.7,0.2-1.5,0.3-2.3c0.7-3.3,2.1-6.2,4.3-8.7c2.1-2.4,5-4.3,8.5-5.8c2.8-1.1,6-2,9.6-2.6c3.5-0.6,7.4-0.8,11.7-0.8c2.9,0,5.9,0.2,8.9,0.4c3.8,0.3,6.9,0.8,8.9,1.2l0.9,0.2c0.2,0,0.4,0.1,0.6,0.1l0.3,0.1v50l-18.6,0c-1.2,0-2.5,0-3.7,0l-0.5,0c-4.8-0.1-9.3-0.2-13.6-1.2c-5.1-1.2-9-3.5-12.3-7.3c-0.9-1-1.7-2.1-2.4-3.2c-0.7-1.1-1.2-2.3-1.7-3.6c-0.4-1.2-0.8-2.5-1-3.8c-0.2-1.3-0.3-2.6-0.4-4l0-3.2L612.8,118.5z"/>
	</g>
</g>
</svg>
